<?xml version="1.0" encoding="UTF-8" standalone="no"?>
<!DOCTYPE svg PUBLIC "-//W3C//DTD SVG 1.1//EN" "http://www.w3.org/Graphics/SVG/1.1/DTD/svg11.dtd">
<!-- Generated by graphviz version 7.0.2 (0)
 -->
<!-- Title: SoundsOfGUIs Pages: 1 -->
<svg width="652pt" height="275pt" viewBox="0.00 0.00 652.00 275.00" xmlns="http://www.w3.org/2000/svg" xmlns:xlink="http://www.w3.org/1999/xlink" style="scroll-behavior: auto !important;">
<g id="graph0" class="graph" transform="scale(1 1) rotate(0) translate(4 271)">
<title>SoundsOfGUIs</title>
<polygon fill="white" stroke="none" points="-4,4 -4,-271 648,-271 648,4 -4,4"/>
<g id="clust1" class="cluster">
<title>clusterLegend</title>
<polygon fill="none" stroke="black" points="8,-8 8,-259 636,-259 636,-8 8,-8"/>
<text text-anchor="middle" x="322" y="-243.8" font-family="Times,serif" font-size="14.00">Legend</text>
</g>
<!-- legendNode0 -->
<g id="node1" class="node">
<title>legendNode0</title>
<polygon fill="none" stroke="black" points="339.03,-192.05 342.36,-192.15 345.65,-192.3 348.89,-192.49 352.08,-192.74 355.19,-193.03 358.22,-193.36 361.14,-193.75 363.96,-194.18 366.66,-194.65 369.23,-195.16 371.66,-195.71 373.95,-196.31 376.08,-196.94 378.05,-197.61 379.86,-198.31 381.5,-199.04 382.96,-199.8 384.25,-200.59 385.36,-201.41 386.29,-202.25 387.05,-203.11 387.63,-203.99 388.03,-204.89 388.26,-205.8 388.32,-206.72 388.22,-207.65 387.96,-208.59 387.54,-209.53 386.97,-210.47 386.26,-211.41 385.42,-212.35 384.44,-213.28 383.35,-214.2 382.13,-215.11 380.81,-216.01 379.39,-216.89 377.88,-217.75 376.28,-218.59 374.6,-219.41 372.85,-220.2 371.04,-220.96 369.16,-221.69 367.24,-222.39 365.27,-223.06 363.25,-223.69 361.2,-224.29 359.12,-224.84 357.01,-225.35 354.88,-225.82 352.73,-226.25 350.56,-226.64 348.38,-226.97 346.18,-227.26 343.98,-227.51 341.77,-227.7 339.55,-227.85 337.33,-227.95 335.11,-228 332.89,-228 330.67,-227.95 328.45,-227.85 326.23,-227.7 324.02,-227.51 321.82,-227.26 319.62,-226.97 317.44,-226.64 315.27,-226.25 313.12,-225.82 310.99,-225.35 308.88,-224.84 306.8,-224.29 304.75,-223.69 302.73,-223.06 300.76,-222.39 298.84,-221.69 296.96,-220.96 295.15,-220.2 293.4,-219.41 291.72,-218.59 290.12,-217.75 288.61,-216.89 287.19,-216.01 285.87,-215.11 284.65,-214.2 283.56,-213.28 282.58,-212.35 281.74,-211.41 281.03,-210.47 280.46,-209.53 280.04,-208.59 279.78,-207.65 279.68,-206.72 279.74,-205.8 279.97,-204.89 280.37,-203.99 280.95,-203.11 281.71,-202.25 282.64,-201.41 283.75,-200.59 285.04,-199.8 286.5,-199.04 288.14,-198.31 289.95,-197.61 291.92,-196.94 294.05,-196.31 296.34,-195.71 298.77,-195.16 301.34,-194.65 304.04,-194.18 306.86,-193.75 309.78,-193.36 312.81,-193.03 315.92,-192.74 319.11,-192.49 322.35,-192.3 325.64,-192.15 328.97,-192.05 332.32,-192 335.68,-192 339.03,-192.05"/>
<text text-anchor="middle" x="334" y="-206.9" font-family="Times,serif" font-size="12.00">Executable</text>
</g>
<!-- legendNode1 -->
<g id="node2" class="node">
<title>legendNode1</title>
<polygon fill="none" stroke="black" points="150.09,-121.54 150.09,-136.46 110.79,-147 55.21,-147 15.91,-136.46 15.91,-121.54 55.21,-111 110.79,-111 150.09,-121.54"/>
<text text-anchor="middle" x="83" y="-125.9" font-family="Times,serif" font-size="12.00">Static Library</text>
</g>
<!-- legendNode0&#45;&gt;legendNode1 -->
<g id="edge1" class="edge">
<title>legendNode0-&gt;legendNode1</title>
<path fill="none" stroke="black" d="M292.47,-196.28C257.19,-185.43 205.22,-169.36 160,-155 152.17,-152.51 143.91,-149.86 135.81,-147.25"/>
<polygon fill="black" stroke="black" points="136.96,-143.94 126.37,-144.19 134.8,-150.6 136.96,-143.94"/>
</g>
<!-- legendNode2 -->
<g id="node3" class="node">
<title>legendNode2</title>
<polygon fill="none" stroke="black" points="319.1,-121.54 319.1,-136.46 276.28,-147 215.72,-147 172.9,-136.46 172.9,-121.54 215.72,-111 276.28,-111 319.1,-121.54"/>
<polygon fill="none" stroke="black" points="323.09,-118.41 323.09,-139.59 276.76,-151 215.24,-151 168.91,-139.59 168.91,-118.41 215.24,-107 276.76,-107 323.09,-118.41"/>
<text text-anchor="middle" x="246" y="-125.9" font-family="Times,serif" font-size="12.00">Shared Library</text>
</g>
<!-- legendNode0&#45;&gt;legendNode2 -->
<g id="edge2" class="edge">
<title>legendNode0-&gt;legendNode2</title>
<path fill="none" stroke="black" d="M315.77,-192.63C304.97,-182.94 290.97,-170.37 278.35,-159.04"/>
<polygon fill="black" stroke="black" points="280.8,-156.54 271.02,-152.46 276.12,-161.75 280.8,-156.54"/>
</g>
<!-- legendNode3 -->
<g id="node4" class="node">
<title>legendNode3</title>
<polygon fill="none" stroke="black" points="496.92,-121.54 496.92,-136.46 453.62,-147 392.38,-147 349.08,-136.46 349.08,-121.54 392.38,-111 453.62,-111 496.92,-121.54"/>
<polygon fill="none" stroke="black" points="500.92,-118.4 500.92,-139.6 454.1,-151 391.9,-151 345.08,-139.6 345.08,-118.4 391.9,-107 454.1,-107 500.92,-118.4"/>
<polygon fill="none" stroke="black" points="504.92,-115.26 504.92,-142.74 454.58,-155 391.42,-155 341.08,-142.74 341.08,-115.26 391.42,-103 454.58,-103 504.92,-115.26"/>
<text text-anchor="middle" x="423" y="-125.9" font-family="Times,serif" font-size="12.00">Module Library</text>
</g>
<!-- legendNode0&#45;&gt;legendNode3 -->
<!-- legendNode7 -->
<g id="node8" class="node">
<title>legendNode7</title>
<polygon fill="none" stroke="black" points="627.5,-147 522.5,-147 522.5,-111 627.5,-111 627.5,-147"/>
<text text-anchor="middle" x="575" y="-125.9" font-family="Times,serif" font-size="12.00">Custom Target</text>
</g>
<!-- legendNode0&#45;&gt;legendNode7 -->
<!-- legendNode4 -->
<g id="node5" class="node">
<title>legendNode4</title>
<polygon fill="none" stroke="black" points="200.14,-39.56 108,-52 15.86,-39.56 51.05,-19.44 164.95,-19.44 200.14,-39.56"/>
<text text-anchor="middle" x="108" y="-30.9" font-family="Times,serif" font-size="12.00">Interface Library</text>
</g>
<!-- legendNode1&#45;&gt;legendNode4 -->
<g id="edge4" class="edge">
<title>legendNode1-&gt;legendNode4</title>
<path fill="none" stroke="black" stroke-dasharray="5,2" d="M87.7,-110.51C91.31,-97.09 96.36,-78.31 100.52,-62.83"/>
<polygon fill="black" stroke="black" points="103.88,-63.82 103.09,-53.25 97.12,-62 103.88,-63.82"/>
<text text-anchor="middle" x="130.5" y="-73.8" font-family="Times,serif" font-size="14.00">Interface</text>
</g>
<!-- legendNode5 -->
<g id="node6" class="node">
<title>legendNode5</title>
<polygon fill="none" stroke="black" points="367.77,-34 330.39,-52 255.61,-52 218.23,-34 255.61,-16 330.39,-16 367.77,-34"/>
<text text-anchor="middle" x="293" y="-30.9" font-family="Times,serif" font-size="12.00">Object Library</text>
</g>
<!-- legendNode2&#45;&gt;legendNode5 -->
<g id="edge5" class="edge">
<title>legendNode2-&gt;legendNode5</title>
<path fill="none" stroke="black" stroke-dasharray="1,5" d="M256.67,-106.9C263.31,-93.74 271.94,-76.68 279.11,-62.48"/>
<polygon fill="black" stroke="black" points="282.2,-64.14 283.58,-53.64 275.95,-60.98 282.2,-64.14"/>
<text text-anchor="middle" x="301" y="-73.8" font-family="Times,serif" font-size="14.00">Private</text>
</g>
<!-- legendNode6 -->
<g id="node7" class="node">
<title>legendNode6</title>
<polygon fill="none" stroke="black" points="554.95,-29.99 538.12,-45.22 470,-52 401.88,-45.22 385.05,-29.99 432.2,-17.78 507.8,-17.78 554.95,-29.99"/>
<text text-anchor="middle" x="470" y="-30.9" font-family="Times,serif" font-size="12.00">Unknown Library</text>
</g>
<!-- legendNode3&#45;&gt;legendNode6 -->
<g id="edge6" class="edge">
<title>legendNode3-&gt;legendNode6</title>
<path fill="none" stroke="black" d="M435.84,-102.59C442.26,-89.9 450.01,-74.55 456.51,-61.69"/>
<polygon fill="black" stroke="black" points="459.55,-63.44 460.93,-52.94 453.3,-60.28 459.55,-63.44"/>
</g>
</g>
</svg>