<?xml version="1.0" encoding="UTF-8" standalone="no"?>
<!DOCTYPE svg PUBLIC "-//W3C//DTD SVG 1.1//EN" "http://www.w3.org/Graphics/SVG/1.1/DTD/svg11.dtd">
<!-- Generated by graphviz version 7.0.2 (0)
 -->
<!-- Title: UserInterface Pages: 1 -->
<svg width="2218pt" height="468pt" viewBox="0.00 0.00 2218.41 467.52" xmlns="http://www.w3.org/2000/svg" xmlns:xlink="http://www.w3.org/1999/xlink" style="scroll-behavior: auto !important;">
<g id="graph0" class="graph" transform="scale(1 1) rotate(0) translate(4 463.52)">
<title>UserInterface</title>
<polygon fill="white" stroke="none" points="-4,4 -4,-463.52 2214.41,-463.52 2214.41,4 -4,4"/>
<!-- node24 -->
<g id="node1" class="node">
<title>node24</title>
<polygon fill="none" stroke="black" points="797.84,-423.57 801.86,-423.67 805.84,-423.82 809.76,-424.02 813.6,-424.26 817.36,-424.55 821.01,-424.89 824.55,-425.27 827.95,-425.7 831.21,-426.17 834.32,-426.68 837.25,-427.24 840.01,-427.83 842.59,-428.46 844.97,-429.13 847.15,-429.83 849.13,-430.56 850.9,-431.33 852.46,-432.12 853.8,-432.93 854.93,-433.77 855.84,-434.63 856.54,-435.51 857.02,-436.41 857.3,-437.32 857.38,-438.24 857.25,-439.17 856.94,-440.11 856.43,-441.05 855.75,-442 854.89,-442.94 853.87,-443.87 852.69,-444.81 851.37,-445.73 849.9,-446.64 848.31,-447.53 846.59,-448.41 844.76,-449.28 842.83,-450.12 840.8,-450.93 838.69,-451.72 836.5,-452.49 834.24,-453.22 831.91,-453.92 829.53,-454.59 827.1,-455.22 824.62,-455.81 822.11,-456.36 819.56,-456.88 816.99,-457.35 814.39,-457.78 811.77,-458.16 809.13,-458.5 806.48,-458.79 803.82,-459.03 801.15,-459.23 798.47,-459.38 795.79,-459.47 793.11,-459.52 790.42,-459.52 787.74,-459.47 785.06,-459.38 782.38,-459.23 779.71,-459.03 777.05,-458.79 774.4,-458.5 771.77,-458.16 769.15,-457.78 766.55,-457.35 763.97,-456.88 761.43,-456.36 758.91,-455.81 756.44,-455.22 754,-454.59 751.62,-453.92 749.3,-453.22 747.03,-452.49 744.84,-451.72 742.73,-450.93 740.7,-450.12 738.77,-449.28 736.94,-448.41 735.23,-447.53 733.63,-446.64 732.17,-445.73 730.84,-444.81 729.66,-443.87 728.64,-442.94 727.78,-442 727.1,-441.05 726.6,-440.11 726.28,-439.17 726.15,-438.24 726.23,-437.32 726.51,-436.41 727,-435.51 727.69,-434.63 728.61,-433.77 729.73,-432.93 731.08,-432.12 732.63,-431.33 734.4,-430.56 736.38,-429.83 738.56,-429.13 740.94,-428.46 743.52,-427.83 746.28,-427.24 749.21,-426.68 752.32,-426.17 755.58,-425.7 758.98,-425.27 762.52,-424.89 766.17,-424.55 769.93,-424.26 773.78,-424.02 777.7,-423.82 781.67,-423.67 785.69,-423.57 789.74,-423.52 793.79,-423.52 797.84,-423.57"/>
<text text-anchor="middle" x="791.77" y="-438.42" font-family="Times,serif" font-size="12.00">UserInterface</text>
</g>
<!-- node25 -->
<g id="node2" class="node">
<title>node25</title>
<polygon fill="none" stroke="black" points="680.4,-367.06 605.77,-379.5 531.13,-367.06 559.64,-346.94 651.89,-346.94 680.4,-367.06"/>
<text text-anchor="middle" x="605.77" y="-358.4" font-family="Times,serif" font-size="12.00">CLI11::CLI11</text>
</g>
<!-- node24&#45;&gt;node25 -->
<g id="edge1" class="edge">
<title>node24-&gt;node25</title>
<path fill="none" stroke="black" stroke-dasharray="1,5" d="M755.46,-425.3C724.02,-412.11 678.6,-393.06 646.05,-379.4"/>
<polygon fill="black" stroke="black" points="647.51,-376.22 636.94,-375.58 644.81,-382.67 647.51,-376.22"/>
</g>
<!-- node11 -->
<g id="node3" class="node">
<title>node11</title>
<polygon fill="none" stroke="black" points="885.02,-350.71 885.02,-372.29 830.39,-387.55 753.14,-387.55 698.52,-372.29 698.52,-350.71 753.14,-335.46 830.39,-335.46 885.02,-350.71"/>
<text text-anchor="middle" x="791.77" y="-364.9" font-family="Times,serif" font-size="12.00">MainLoop_lib</text>
<text text-anchor="middle" x="791.77" y="-351.9" font-family="Times,serif" font-size="12.00">(SOG::MainLoop)</text>
</g>
<!-- node24&#45;&gt;node11 -->
<g id="edge2" class="edge">
<title>node24-&gt;node11</title>
<path fill="none" stroke="black" stroke-dasharray="1,5" d="M791.77,-423.21C791.77,-416.05 791.77,-407.46 791.77,-399.02"/>
<polygon fill="black" stroke="black" points="795.27,-399.28 791.77,-389.28 788.27,-399.28 795.27,-399.28"/>
</g>
<!-- node19 -->
<g id="node19" class="node">
<title>node19</title>
<polygon fill="none" stroke="black" points="1099.87,-350.71 1099.87,-372.29 1054.7,-387.55 990.83,-387.55 945.66,-372.29 945.66,-350.71 990.83,-335.46 1054.7,-335.46 1099.87,-350.71"/>
<text text-anchor="middle" x="1022.77" y="-364.9" font-family="Times,serif" font-size="12.00">QtUi_lib</text>
<text text-anchor="middle" x="1022.77" y="-351.9" font-family="Times,serif" font-size="12.00">(SOG::UI::QT)</text>
</g>
<!-- node24&#45;&gt;node19 -->
<g id="edge21" class="edge">
<title>node24-&gt;node19</title>
<path fill="none" stroke="black" stroke-dasharray="1,5" d="M834.14,-426.21C868.9,-414.47 918.68,-397.66 958.37,-384.25"/>
<polygon fill="black" stroke="black" points="959.49,-387.57 967.85,-381.05 957.25,-380.94 959.49,-387.57"/>
</g>
<!-- node0 -->
<g id="node4" class="node">
<title>node0</title>
<polygon fill="none" stroke="black" points="1196.48,-262.67 1196.48,-284.24 1135.14,-299.5 1048.39,-299.5 987.06,-284.24 987.06,-262.67 1048.39,-247.41 1135.14,-247.41 1196.48,-262.67"/>
<text text-anchor="middle" x="1091.77" y="-276.86" font-family="Times,serif" font-size="12.00">GuiCollector_lib</text>
<text text-anchor="middle" x="1091.77" y="-263.86" font-family="Times,serif" font-size="12.00">(SOG::GuiCollector)</text>
</g>
<!-- node11&#45;&gt;node0 -->
<g id="edge3" class="edge">
<title>node11-&gt;node0</title>
<path fill="none" stroke="black" d="M855.76,-342.15C901.75,-328.96 964.04,-311.09 1013.08,-297.02"/>
<polygon fill="black" stroke="black" points="1013.86,-300.44 1022.51,-294.32 1011.93,-293.71 1013.86,-300.44"/>
</g>
<!-- node4 -->
<g id="node8" class="node">
<title>node4</title>
<polygon fill="none" stroke="black" points="828,-170.93 828,-192.51 788.03,-207.76 731.5,-207.76 691.53,-192.51 691.53,-170.93 731.5,-155.67 788.03,-155.67 828,-170.93"/>
<text text-anchor="middle" x="759.77" y="-185.12" font-family="Times,serif" font-size="12.00">Utils_lib</text>
<text text-anchor="middle" x="759.77" y="-172.12" font-family="Times,serif" font-size="12.00">(SOG::Utils)</text>
</g>
<!-- node11&#45;&gt;node4 -->
<g id="edge20" class="edge">
<title>node11-&gt;node4</title>
<path fill="none" stroke="black" d="M787.18,-335.03C781.72,-304.67 772.54,-253.7 766.33,-219.17"/>
<polygon fill="black" stroke="black" points="769.83,-218.85 764.61,-209.63 762.94,-220.09 769.83,-218.85"/>
</g>
<!-- node12 -->
<g id="node15" class="node">
<title>node12</title>
<polygon fill="none" stroke="black" points="700.26,-262.67 700.26,-284.24 641.98,-299.5 559.55,-299.5 501.27,-284.24 501.27,-262.67 559.55,-247.41 641.98,-247.41 700.26,-262.67"/>
<text text-anchor="middle" x="600.77" y="-276.86" font-family="Times,serif" font-size="12.00">Sounds_lib</text>
<text text-anchor="middle" x="600.77" y="-263.86" font-family="Times,serif" font-size="12.00">(SOG::SoundCode)</text>
</g>
<!-- node11&#45;&gt;node12 -->
<g id="edge14" class="edge">
<title>node11-&gt;node12</title>
<path fill="none" stroke="black" d="M742.08,-338.12C717.6,-327.09 687.86,-313.69 661.98,-302.03"/>
<polygon fill="black" stroke="black" points="663.47,-298.86 652.91,-297.95 660.59,-305.25 663.47,-298.86"/>
</g>
<!-- node1 -->
<g id="node5" class="node">
<title>node1</title>
<polygon fill="none" stroke="black" points="1474.01,-190.97 1358.77,-211.65 1243.52,-190.97 1287.54,-157.5 1429.99,-157.5 1474.01,-190.97"/>
<text text-anchor="middle" x="1358.77" y="-185.12" font-family="Times,serif" font-size="12.00">PkgConfig::ATSPI2</text>
<text text-anchor="middle" x="1358.77" y="-172.12" font-family="Times,serif" font-size="12.00">(atspi-2::atspi-2)</text>
</g>
<!-- node0&#45;&gt;node1 -->
<g id="edge4" class="edge">
<title>node0-&gt;node1</title>
<path fill="none" stroke="black" d="M1153.69,-251.64C1194.79,-237.83 1248.74,-219.7 1290.98,-205.5"/>
<polygon fill="black" stroke="black" points="1291.94,-208.87 1300.3,-202.37 1289.7,-202.24 1291.94,-208.87"/>
</g>
<!-- node2 -->
<g id="node6" class="node">
<title>node2</title>
<polygon fill="none" stroke="black" points="1761.47,-190.97 1626.77,-211.65 1492.06,-190.97 1543.52,-157.5 1710.02,-157.5 1761.47,-190.97"/>
<text text-anchor="middle" x="1626.77" y="-185.12" font-family="Times,serif" font-size="12.00">PkgConfig::GOBJECT2</text>
<text text-anchor="middle" x="1626.77" y="-172.12" font-family="Times,serif" font-size="12.00">(gobject-2::gobject-2)</text>
</g>
<!-- node0&#45;&gt;node2 -->
<g id="edge5" class="edge">
<title>node0-&gt;node2</title>
<path fill="none" stroke="black" stroke-dasharray="1,5" d="M1183.98,-259.18C1263.33,-247.49 1380.79,-229.55 1482.77,-211.43 1499.44,-208.47 1517.16,-205.11 1534.26,-201.76"/>
<polygon fill="black" stroke="black" points="1534.78,-205.23 1543.91,-199.86 1533.42,-198.36 1534.78,-205.23"/>
</g>
<!-- node3 -->
<g id="node7" class="node">
<title>node3</title>
<polygon fill="none" stroke="black" points="2018.75,-190.97 1898.77,-211.65 1778.78,-190.97 1824.61,-157.5 1972.92,-157.5 2018.75,-190.97"/>
<text text-anchor="middle" x="1898.77" y="-185.12" font-family="Times,serif" font-size="12.00">PkgConfig::LIBXDO</text>
<text text-anchor="middle" x="1898.77" y="-172.12" font-family="Times,serif" font-size="12.00">(libxdo::libxdo)</text>
</g>
<!-- node0&#45;&gt;node3 -->
<g id="edge6" class="edge">
<title>node0-&gt;node3</title>
<path fill="none" stroke="black" stroke-dasharray="1,5" d="M1196.98,-267.29C1330.88,-259.72 1569.05,-242.99 1770.77,-211.43 1786.07,-209.04 1802.27,-205.89 1817.81,-202.56"/>
<polygon fill="black" stroke="black" points="1818.5,-205.99 1827.52,-200.43 1817,-199.16 1818.5,-205.99"/>
</g>
<!-- node0&#45;&gt;node4 -->
<g id="edge7" class="edge">
<title>node0-&gt;node4</title>
<path fill="none" stroke="black" d="M1012.12,-256.02C961.49,-244.93 894.79,-229.12 836.77,-211.43 830.23,-209.44 823.44,-207.19 816.73,-204.84"/>
<polygon fill="black" stroke="black" points="818.3,-201.69 807.71,-201.61 815.94,-208.28 818.3,-201.69"/>
</g>
<!-- node9 -->
<g id="node13" class="node">
<title>node9</title>
<polygon fill="none" stroke="black" points="935.9,-174.26 935.9,-189.17 910.63,-199.72 874.9,-199.72 849.63,-189.17 849.63,-174.26 874.9,-163.72 910.63,-163.72 935.9,-174.26"/>
<polygon fill="none" stroke="black" points="939.89,-171.59 939.89,-191.84 911.43,-203.72 874.1,-203.72 845.65,-191.84 845.65,-171.59 874.1,-159.72 911.43,-159.72 939.89,-171.59"/>
<text text-anchor="middle" x="892.77" y="-178.62" font-family="Times,serif" font-size="12.00">fmt::fmt</text>
</g>
<!-- node0&#45;&gt;node9 -->
<g id="edge12" class="edge">
<title>node0-&gt;node9</title>
<path fill="none" stroke="black" stroke-dasharray="1,5" d="M1036.7,-250.03C1009.96,-238.86 977.48,-224.9 948.77,-211.43 943.89,-209.15 938.82,-206.68 933.8,-204.18"/>
<polygon fill="black" stroke="black" points="935.53,-201.13 925.03,-199.74 932.37,-207.38 935.53,-201.13"/>
</g>
<!-- node10 -->
<g id="node14" class="node">
<title>node10</title>
<polygon fill="none" stroke="black" points="1225.61,-187.28 1091.77,-199.72 957.93,-187.28 1009.05,-167.15 1174.48,-167.15 1225.61,-187.28"/>
<text text-anchor="middle" x="1091.77" y="-178.62" font-family="Times,serif" font-size="12.00">magic_enum::magic_enum</text>
</g>
<!-- node0&#45;&gt;node10 -->
<g id="edge13" class="edge">
<title>node0-&gt;node10</title>
<path fill="none" stroke="black" stroke-dasharray="1,5" d="M1091.77,-246.98C1091.77,-235.83 1091.77,-222.7 1091.77,-211.22"/>
<polygon fill="black" stroke="black" points="1095.27,-211.52 1091.77,-201.52 1088.27,-211.52 1095.27,-211.52"/>
</g>
<!-- node5 -->
<g id="node9" class="node">
<title>node5</title>
<polygon fill="none" stroke="black" points="932.77,-99.56 862.77,-112 792.76,-99.56 819.5,-79.44 906.03,-79.44 932.77,-99.56"/>
<text text-anchor="middle" x="862.77" y="-90.9" font-family="Times,serif" font-size="12.00">Boost::boost</text>
</g>
<!-- node4&#45;&gt;node5 -->
<g id="edge8" class="edge">
<title>node4-&gt;node5</title>
<path fill="none" stroke="black" d="M789.56,-155.92C804.61,-143.39 822.7,-128.34 837.13,-116.34"/>
<polygon fill="black" stroke="black" points="838.97,-119.36 844.42,-110.27 834.49,-113.98 838.97,-119.36"/>
</g>
<!-- node7 -->
<g id="node11" class="node">
<title>node7</title>
<polygon fill="none" stroke="black" points="774.65,-99.56 656.77,-112 538.88,-99.56 583.91,-79.44 729.62,-79.44 774.65,-99.56"/>
<text text-anchor="middle" x="656.77" y="-90.9" font-family="Times,serif" font-size="12.00">libbacktrace_for_boost</text>
</g>
<!-- node4&#45;&gt;node7 -->
<g id="edge10" class="edge">
<title>node4-&gt;node7</title>
<path fill="none" stroke="black" d="M729.97,-155.92C715.45,-143.84 698.11,-129.4 683.95,-117.62"/>
<polygon fill="black" stroke="black" points="686.25,-114.99 676.33,-111.28 681.77,-120.37 686.25,-114.99"/>
</g>
<!-- node6 -->
<g id="node10" class="node">
<title>node6</title>
<polygon fill="none" stroke="black" points="944.1,-23.56 862.77,-36 781.43,-23.56 812.5,-3.44 913.03,-3.44 944.1,-23.56"/>
<text text-anchor="middle" x="862.77" y="-14.9" font-family="Times,serif" font-size="12.00">Boost::headers</text>
</g>
<!-- node5&#45;&gt;node6 -->
<g id="edge9" class="edge">
<title>node5-&gt;node6</title>
<path fill="none" stroke="black" stroke-dasharray="5,2" d="M862.77,-79.08C862.77,-70.16 862.77,-58.27 862.77,-47.42"/>
<polygon fill="black" stroke="black" points="866.27,-47.76 862.77,-37.76 859.27,-47.76 866.27,-47.76"/>
</g>
<!-- node8 -->
<g id="node12" class="node">
<title>node8</title>
<polygon fill="none" stroke="black" points="709.49,-13.99 699.04,-29.22 656.77,-36 614.49,-29.22 604.05,-13.99 633.3,-1.78 680.23,-1.78 709.49,-13.99"/>
<text text-anchor="middle" x="656.77" y="-14.9" font-family="Times,serif" font-size="12.00">backtrace</text>
</g>
<!-- node7&#45;&gt;node8 -->
<g id="edge11" class="edge">
<title>node7-&gt;node8</title>
<path fill="none" stroke="black" stroke-dasharray="5,2" d="M656.77,-79.08C656.77,-70.16 656.77,-58.27 656.77,-47.42"/>
<polygon fill="black" stroke="black" points="660.27,-47.76 656.77,-37.76 653.27,-47.76 660.27,-47.76"/>
</g>
<!-- node12&#45;&gt;node4 -->
<g id="edge18" class="edge">
<title>node12-&gt;node4</title>
<path fill="none" stroke="black" d="M644.63,-247.7C665.42,-235.96 690.31,-221.92 711.62,-209.89"/>
<polygon fill="black" stroke="black" points="713.14,-213.05 720.13,-205.09 709.7,-206.95 713.14,-213.05"/>
</g>
<!-- node12&#45;&gt;node9 -->
<g id="edge19" class="edge">
<title>node12-&gt;node9</title>
<path fill="none" stroke="black" stroke-dasharray="1,5" d="M679.17,-256.75C725.75,-246.3 785.54,-230.92 836.77,-211.43 842.12,-209.4 847.63,-206.99 853,-204.45"/>
<polygon fill="black" stroke="black" points="854.32,-207.7 861.74,-200.14 851.22,-201.43 854.32,-207.7"/>
</g>
<!-- node13 -->
<g id="node16" class="node">
<title>node13</title>
<polygon fill="none" stroke="black" points="211.3,-187.28 105.77,-199.72 0.23,-187.28 40.54,-167.15 170.99,-167.15 211.3,-187.28"/>
<text text-anchor="middle" x="105.77" y="-178.62" font-family="Times,serif" font-size="12.00">Microsoft.GSL::GSL</text>
</g>
<!-- node12&#45;&gt;node13 -->
<g id="edge15" class="edge">
<title>node12-&gt;node13</title>
<path fill="none" stroke="black" stroke-dasharray="1,5" d="M509.77,-260.08C432.54,-249.03 318.96,-231.54 220.77,-211.43 201.39,-207.47 180.36,-202.43 161.64,-197.69"/>
<polygon fill="black" stroke="black" points="162.64,-194.33 152.09,-195.24 160.9,-201.11 162.64,-194.33"/>
</g>
<!-- node14 -->
<g id="node17" class="node">
<title>node14</title>
<polygon fill="none" stroke="black" points="395.86,-174.26 395.86,-189.17 348.35,-199.72 281.18,-199.72 233.68,-189.17 233.68,-174.26 281.18,-163.72 348.35,-163.72 395.86,-174.26"/>
<polygon fill="none" stroke="black" points="399.85,-171.05 399.85,-192.38 348.79,-203.72 280.74,-203.72 229.69,-192.38 229.69,-171.05 280.74,-159.72 348.79,-159.72 399.85,-171.05"/>
<text text-anchor="middle" x="314.77" y="-178.62" font-family="Times,serif" font-size="12.00">OpenAL::OpenAL</text>
</g>
<!-- node12&#45;&gt;node14 -->
<g id="edge16" class="edge">
<title>node12-&gt;node14</title>
<path fill="none" stroke="black" stroke-dasharray="1,5" d="M537.65,-252.65C490.64,-237.9 426.68,-217.83 379.34,-202.98"/>
<polygon fill="black" stroke="black" points="380.62,-199.71 370.03,-200.06 378.53,-206.39 380.62,-199.71"/>
</g>
<!-- node15 -->
<g id="node18" class="node">
<title>node15</title>
<polygon fill="none" stroke="black" points="673.48,-190.97 545.77,-211.65 418.05,-190.97 466.83,-157.5 624.7,-157.5 673.48,-190.97"/>
<text text-anchor="middle" x="545.77" y="-185.12" font-family="Times,serif" font-size="12.00">PkgConfig::SNDFILE</text>
<text text-anchor="middle" x="545.77" y="-172.12" font-family="Times,serif" font-size="12.00">(SndFile::sndfile)</text>
</g>
<!-- node12&#45;&gt;node15 -->
<g id="edge17" class="edge">
<title>node12-&gt;node15</title>
<path fill="none" stroke="black" stroke-dasharray="1,5" d="M585.15,-246.98C579.78,-238.21 573.65,-228.22 567.86,-218.77"/>
<polygon fill="black" stroke="black" points="570.99,-217.18 562.78,-210.48 565.03,-220.84 570.99,-217.18"/>
</g>
<!-- node19&#45;&gt;node4 -->
<g id="edge27" class="edge">
<title>node19-&gt;node4</title>
<path fill="none" stroke="black" d="M987.02,-336.34C939.26,-304.05 854.68,-246.88 803.27,-212.13"/>
<polygon fill="black" stroke="black" points="805.26,-209.25 795.02,-206.55 801.34,-215.05 805.26,-209.25"/>
</g>
<!-- node20 -->
<g id="node20" class="node">
<title>node20</title>
<polygon fill="none" stroke="black" points="2134.71,-86.54 2134.71,-101.46 2105.46,-112 2064.08,-112 2034.82,-101.46 2034.82,-86.54 2064.08,-76 2105.46,-76 2134.71,-86.54"/>
<polygon fill="none" stroke="black" points="2138.71,-83.73 2138.71,-104.27 2106.15,-116 2063.38,-116 2030.82,-104.27 2030.82,-83.73 2063.38,-72 2106.15,-72 2138.71,-83.73"/>
<text text-anchor="middle" x="2084.77" y="-90.9" font-family="Times,serif" font-size="12.00">Qt5::Core</text>
</g>
<!-- node19&#45;&gt;node20 -->
<g id="edge22" class="edge">
<title>node19-&gt;node20</title>
<path fill="none" stroke="black" d="M1100.27,-358.15C1309.47,-350.41 1879.78,-319.65 2027.77,-211.43 2055.43,-191.21 2070.35,-153.86 2077.9,-126.9"/>
<polygon fill="black" stroke="black" points="2081.21,-128.09 2080.32,-117.54 2074.43,-126.34 2081.21,-128.09"/>
</g>
<!-- node21 -->
<g id="node21" class="node">
<title>node21</title>
<polygon fill="none" stroke="black" points="2204.52,-266 2204.52,-280.91 2167.76,-291.46 2115.77,-291.46 2079.01,-280.91 2079.01,-266 2115.77,-255.46 2167.76,-255.46 2204.52,-266"/>
<polygon fill="none" stroke="black" points="2208.53,-262.99 2208.53,-283.92 2168.33,-295.46 2115.21,-295.46 2075,-283.92 2075,-262.99 2115.21,-251.46 2168.33,-251.46 2208.53,-262.99"/>
<text text-anchor="middle" x="2141.77" y="-270.36" font-family="Times,serif" font-size="12.00">Qt5::Widgets</text>
</g>
<!-- node19&#45;&gt;node21 -->
<g id="edge23" class="edge">
<title>node19-&gt;node21</title>
<path fill="none" stroke="black" d="M1100.2,-358.37C1308.3,-352.24 1876.36,-332.88 2060.77,-299.48 2068.83,-298.02 2077.22,-296.01 2085.41,-293.76"/>
<polygon fill="black" stroke="black" points="2086.32,-297.14 2094.95,-290.99 2084.37,-290.42 2086.32,-297.14"/>
</g>
<!-- node21&#45;&gt;node20 -->
<g id="edge24" class="edge">
<title>node21-&gt;node20</title>
<path fill="none" stroke="black" stroke-dasharray="5,2" d="M2125.45,-250.96C2117.71,-239.74 2109.03,-225.45 2103.77,-211.43 2093.54,-184.21 2088.81,-151.36 2086.63,-127.5"/>
<polygon fill="black" stroke="black" points="2090.14,-127.45 2085.85,-117.76 2083.16,-128.01 2090.14,-127.45"/>
</g>
<!-- node22 -->
<g id="node22" class="node">
<title>node22</title>
<polygon fill="none" stroke="black" points="2206.54,-174.26 2206.54,-189.17 2180.31,-199.72 2143.22,-199.72 2116.99,-189.17 2116.99,-174.26 2143.22,-163.72 2180.31,-163.72 2206.54,-174.26"/>
<polygon fill="none" stroke="black" points="2210.55,-171.56 2210.55,-191.87 2181.09,-203.72 2142.44,-203.72 2112.98,-191.87 2112.98,-171.56 2142.44,-159.72 2181.09,-159.72 2210.55,-171.56"/>
<text text-anchor="middle" x="2161.77" y="-178.62" font-family="Times,serif" font-size="12.00">Qt5::Gui</text>
</g>
<!-- node21&#45;&gt;node22 -->
<g id="edge25" class="edge">
<title>node21-&gt;node22</title>
<path fill="none" stroke="black" stroke-dasharray="5,2" d="M2146.51,-251.19C2148.9,-240.43 2151.87,-227.13 2154.54,-215.13"/>
<polygon fill="black" stroke="black" points="2157.9,-216.14 2156.66,-205.62 2151.07,-214.62 2157.9,-216.14"/>
</g>
<!-- node22&#45;&gt;node20 -->
<g id="edge26" class="edge">
<title>node22-&gt;node20</title>
<path fill="none" stroke="black" stroke-dasharray="5,2" d="M2142.73,-159.53C2133.29,-149.02 2121.73,-136.15 2111.43,-124.68"/>
<polygon fill="black" stroke="black" points="2114.15,-122.47 2104.86,-117.37 2108.94,-127.15 2114.15,-122.47"/>
</g>
</g>
</svg>